<svg width="200" height="200" fill="none" id="svg732342678_17896" xmlns="http://www.w3.org/2000/svg"><rect width="200" height="200" rx="40" fill="#40EC96"></rect><path d="M46.867 47.413c-.174.454-.174.987.013.987.08 0 .12.12.08.267-.04.146-.013.266.04.266.067 0 .16.214.213.467.04.253.147.467.214.467.08 0 .106.093.053.2-.04.106-.013.2.067.2s.12.093.066.2c-.04.106-.026.2.04.2.067 0 .16.16.214.36.04.2.146.4.213.44.053.04.133.226.147.4.026.186.146.453.266.586.134.134.2.307.16.374-.04.053-.013.106.04.106.107 0 .467.774.427.92 0 .027.04.094.107.134.066.04.32.426.56.84.24.426.493.8.56.84.066.053.093.146.053.213-.053.067-.027.12.04.12.12 0 .387.48.4.72 0 .067.093.173.213.24s.214.213.214.307c0 .106.053.2.106.2.054 0 .374.4.694.893.32.507.733 1.04.893 1.187.173.16.307.346.307.426 0 .187 4.026 4.254 4.653 4.707.24.173.547.413.667.52.906.827 4.893 3.467 5.213 3.467.067 0 .133.04.16.093.027.067.253.213.507.347.96.48 1.666.906 1.8 1.08.08.093.2.146.28.12.093-.027.24.026.333.133.107.093.293.213.427.267.12.04.226.146.226.213 0 .08.094.107.2.067.107-.054.2-.014.2.08 0 .08.067.106.134.066.08-.04.133-.026.133.04 0 .08.147.174.32.214.187.04.413.16.507.253.093.08.413.28.693.427.987.506 1.267.666 1.573.946.174.147.387.254.467.227.08-.027.24.04.347.16.12.107.266.2.333.2s.28.12.48.28c.187.147.347.227.347.16 0-.053.053-.04.106.027.054.08.24.213.427.306.187.094.573.307.867.494.293.173.733.426.986.533.254.12.534.293.627.373.44.4.587.494.587.414 0-.04.08-.014.173.066.107.08.227.107.267.054.053-.04.093-.014.093.066 0 .094.067.16.147.16.08 0 .32.12.533.28.213.147.387.227.387.16 0-.053.053-.04.106.027.054.08.24.213.427.307.187.093.573.32.867.493.293.187.773.453 1.066.587.294.146.667.386.84.546.16.147.294.24.294.187 0-.04.093-.013.2.08.106.093.2.12.2.08 0-.08.16.027.6.427.106.093.226.16.266.16.107-.014.92.413 1 .52.04.053.28.173.534.28.253.093.56.253.666.333.107.08.507.32.867.533.373.214.707.427.747.494.04.08.12.12.173.12.133-.027.933.413 1.027.546.04.067.12.12.173.12.16-.013 1.013.44 1.013.547 0 .053.067.107.16.107.187 0 3.734 2 3.854 2.173.04.067.12.107.173.107.093-.027.92.386 1.013.506.067.08.227.174 1.76.987.414.227.734.453.694.52-.04.053.013.067.12.027.106-.04.28.013.373.106.107.107.387.267.627.36.226.094.426.24.426.307s.054.08.134.04c.08-.04.133-.027.133.027 0 .066.16.186.373.266.2.094.48.24.627.334.147.093.453.28.693.426.227.147.4.307.36.36-.026.054.054.067.187.027.2-.053.373.053 1.067.627.08.08.16.106.16.053 0-.04.08-.013.173.067.107.08.227.106.267.053.053-.04.093-.013.093.067 0 .093.067.16.147.16.08 0 .32.12.533.28.213.146.387.226.387.16 0-.054.053-.04.106.026.054.08.24.214.427.307s.573.32.867.493c.293.187.773.454 1.066.587.294.147.667.387.84.547.16.146.294.24.294.186 0-.04.093-.013.2.08.106.094.2.12.2.08 0-.053.093-.013.2.08.466.414.666.574.706.534.094-.094 3.48 1.88 3.414 1.986-.04.067.026.08.133.04.12-.04.213-.013.213.067s.04.133.107.12c.12-.04 1 .427 1.107.587.04.066.12.12.173.12.16-.014 1.013.44 1.013.546 0 .054.067.107.16.107.187 0 3.734 2 3.854 2.173.04.067.12.107.173.107.093-.027.92.387 1.013.507.04.04.28.186.534.333 1.746.933 2.213 1.2 2.293 1.333.053.08.107.107.107.04 0-.226 1.88 1.227 2.88 2.227 1.066 1.08 2.346 2.96 2.533 3.707.04.213.147.373.213.373.08 0 .107.12.067.267-.04.146-.013.266.067.266s.106.12.066.267c-.04.147-.013.267.054.267.066 0 .12.12.12.253 0 .147.066.307.146.36.08.04.107.227.067.4-.053.173-.04.32.027.32.16 0 .16 1.987 0 2.08-.08.053-.187.013-.24-.08-.054-.08-.147-.16-.214-.16-.24-.027-1.053-.4-1.133-.533-.04-.067-.12-.12-.173-.12-.094.026-.92-.387-1.014-.507-.04-.04-.546-.32-1.133-.613-.587-.294-1.133-.587-1.227-.667-.093-.067-.266-.227-.4-.333-.133-.107-.253-.187-.266-.16-.054.04-.88-.387-.974-.494-.04-.053-.28-.173-.533-.28a7.636 7.636 0 0 1-.92-.493c-.253-.173-.52-.307-.6-.307-.08 0-.333-.16-.547-.373-.213-.2-.413-.347-.426-.32-.067.053-.894-.4-.987-.533-.04-.067-.107-.107-.133-.094-.04.04-1.467-.68-2.12-1.08-.107-.066-.534-.306-.934-.546-.4-.227-.773-.48-.813-.547-.04-.067-.12-.12-.173-.107-.2.054-2.6-1.386-2.52-1.506.04-.08.013-.094-.08-.04-.147.093-2.56-1.187-2.654-1.414-.026-.053-.12-.106-.2-.106-.186 0-3.733-2-3.84-2.174a.227.227 0 0 0-.173-.106c-.16.013-1.013-.44-1.013-.547 0-.053-.067-.107-.16-.107-.187 0-2.534-1.333-2.654-1.506a.227.227 0 0 0-.173-.107c-.133.027-.933-.413-1.027-.547-.04-.066-.12-.12-.173-.12-.093.027-.92-.386-1.013-.506-.04-.04-.307-.2-.6-.347-.814-.4-2.12-1.173-2.214-1.307a.227.227 0 0 0-.173-.106c-.16.013-1.013-.44-1.013-.547 0-.053-.067-.107-.16-.107-.2 0-2.547-1.32-2.654-1.493-.04-.067-.12-.12-.173-.12-.133.027-.933-.413-1.027-.547-.04-.066-.12-.12-.173-.12-.093.027-.92-.386-1.013-.506-.04-.04-.467-.294-.96-.534-.507-.253-.907-.506-.907-.546 0-.04-.213-.16-.467-.254-.253-.093-.466-.226-.466-.293 0-.08-.054-.093-.134-.053-.066.04-.133.026-.133-.027 0-.067-.213-.2-.467-.293-.253-.094-.466-.227-.466-.294 0-.08-.054-.093-.134-.053-.066.04-.133.013-.133-.053a.148.148 0 0 0-.147-.147c-.186 0-2.56-1.333-2.666-1.507a.227.227 0 0 0-.174-.106c-.16.013-1.013-.44-1.013-.547 0-.053-.08-.107-.16-.107-.293-.013-2.387-1.28-2.28-1.386.053-.054 0-.054-.133 0-.134.04-.227.013-.227-.067s-.04-.133-.093-.12c-.12.027-1-.413-1.107-.547-.04-.053-.267-.173-.507-.28-.253-.093-.52-.24-.613-.32-.16-.146-.547-.373-1.733-.986-.347-.187-.667-.427-.707-.507-.04-.093-.147-.133-.253-.093-.107.04-.187 0-.187-.08s-.04-.134-.093-.12c-.12.026-1-.414-1.107-.547-.04-.053-.32-.2-.627-.333-.32-.147-.573-.294-.573-.347 0-.067-.133-.133-.293-.187-.174-.04-.454-.213-.64-.386-.187-.174-.4-.294-.494-.267-.08.027-.226-.027-.32-.12-.106-.107-.386-.267-.613-.36-.24-.093-.44-.227-.44-.293 0-.067-.04-.107-.093-.094-.067.027-.347-.106-.64-.28a30.046 30.046 0 0 0-1.934-1.08 4.362 4.362 0 0 1-.733-.493c-.147-.147-.347-.24-.44-.2-.08.027-.16-.027-.16-.12s-.04-.133-.08-.08c-.053.04-.16.013-.267-.08-.426-.387-.533-.44-.693-.387-.08.027-.16-.026-.16-.12 0-.093-.04-.133-.08-.08-.053.04-.16.014-.267-.08-.413-.36-.586-.506-.586-.44 0 .027-.254-.093-.56-.266-.32-.174-.814-.44-1.107-.574-.293-.146-.653-.373-.8-.506-.387-.347-1.4-.334-1.693.026-.227.294-.187 1 .053 1 .08 0 .107.12.067.267-.04.147-.014.267.053.267s.12.08.12.16c0 .093.093.346.2.56.107.2.173.426.133.48-.04.066-.026.133.027.16.173.066.72 1.32.64 1.453-.053.067-.013.12.067.12.093 0 .12.093.08.213-.04.107-.027.16.053.12.08-.04.133.014.133.12 0 .12.054.214.107.214.067 0 .2.24.293.533.094.293.227.533.294.533.066 0 .08.054.04.134-.04.066-.014.133.066.133.094 0 .134.08.107.16-.04.093.08.32.253.507.174.186.347.44.387.586.08.227.573 1.04.84 1.36a3.5 3.5 0 0 1 .28.467c.093.173.293.48.453.667.16.186.374.493.48.653.854 1.307 3.294 4.027 4.827 5.387 1.067.933 2.813 2.333 3.627 2.88.493.333.96.653 1.053.733.267.213 1.573 1 1.667 1 .053 0 .24.133.426.307.187.173.414.293.507.253.08-.027.16.013.16.107 0 .08.053.12.12.08.067-.054.147-.027.173.04.014.053.467.333.974.613.52.28 1.173.653 1.466.827.294.16.747.413 1 .533.254.133.494.28.507.333.027.067.12.107.213.107.107 0 .334.12.534.28.186.147.346.227.346.16 0-.053.054-.04.107.027.053.08.24.213.427.306.186.094.64.347 1 .56.373.214.893.494 1.173.614.267.12.493.28.493.346 0 .054.094.107.2.107.12 0 .24.08.28.187.04.106.16.16.267.12.107-.04.187-.014.187.066s.16.2.373.294c.2.08.667.32 1.027.533.373.213.906.507 1.2.64.293.147.653.387.8.52.146.147.346.24.44.2.08-.027.16.013.16.08 0 .08.186.2.4.28.226.067.4.2.4.267 0 .08.04.133.106.12.08-.027 1.614.746 2.16 1.106.107.067.4.214.654.334.253.106.533.28.626.36.4.36.587.493.654.493.133-.013.933.44 1.013.56.04.067.12.12.173.12.16-.013 1.014.44 1.014.547 0 .053.066.106.16.106.186 0 3.733 2 3.853 2.174.04.066.12.106.173.106.094-.026.92.387 1.014.507.04.04.306.2.6.347.293.146.56.293.6.333.04.04.413.24.826.467.427.213.774.44.774.493 0 .067.04.093.106.08.107-.027.987.413 1.094.547.04.053.32.2.64.333.306.147.56.293.56.347 0 .066.133.133.306.186.174.04.467.214.654.387.173.173.386.293.466.267.08-.027.227.026.32.133.107.093.294.213.427.267.12.04.227.146.227.213 0 .08.093.107.2.067.106-.054.2-.014.2.08 0 .08.066.106.133.066.08-.04.133-.026.133.04 0 .08.147.174.32.214.187.04.414.16.507.253.093.08.387.267.64.4.96.48 1.667.907 1.8 1.08.08.093.213.147.307.12.08-.04.16.013.16.107 0 .093.04.133.08.08.053-.04.16-.014.266.08.427.386.534.44.694.386.08-.026.16.014.16.107 0 .08.066.107.133.067.08-.04.133-.027.133.026 0 .067.16.187.374.28.666.307 1.2.627 1.533.92.187.16.373.254.413.214.08-.094 1.014.506 1.014.653 0 .053.093.067.2.027.106-.054.2-.014.2.093 0 .093.04.133.08.08.053-.04.16-.013.266.08.36.333.52.44.654.48.266.053 2.133 1.12 2.173 1.227.027.066.12.12.213.12.107 0 .334.12.507.266.187.134.373.214.427.174.04-.04.08-.014.08.066 0 .094.066.16.133.16.227 0 2.013 1.214 2.093 1.414.04.106.147.186.24.186.214 0 1.894 1.774 2.094 2.214.08.173.186.32.24.32.053 0 .2.253.346.56.134.32.28.6.334.64.04.04.16.306.266.6.094.293.227.6.294.693.066.093.08.227.026.307-.04.066-.026.133.054.133.066 0 .173.28.226.627.04.36.147.706.214.8.066.093.093.28.04.44a.592.592 0 0 0 .066.48c.12.12.134.413.08.853-.053.427-.04.667.054.667.066 0 .133.053.133.133 0 .2-.36.16-.587-.067-.106-.12-.24-.2-.28-.2-.093.014-.92-.413-1-.52-.04-.053-.32-.2-.626-.333-.307-.133-.68-.36-.84-.507-.147-.133-.267-.213-.267-.16 0 .04-.093.014-.2-.08-.107-.093-.2-.12-.2-.08 0 .054-.093.014-.2-.08-.413-.373-.6-.52-.6-.453 0 .027-.32-.12-.693-.333-.387-.214-.88-.494-1.107-.6-.213-.12-.68-.374-1.013-.56-.347-.2-1.24-.72-2-1.147-.76-.44-1.427-.853-1.467-.92a.227.227 0 0 0-.173-.107c-.147.014-1.014-.44-1.014-.533 0-.053-.133-.12-.306-.173-.174-.04-.467-.214-.667-.4-.187-.174-.373-.294-.413-.254-.067.08-1.32-.64-1.387-.786-.027-.067-.107-.08-.173-.027-.067.04-.12.013-.12-.053 0-.08-.147-.174-.32-.214a1.206 1.206 0 0 1-.507-.253 4.646 4.646 0 0 0-.64-.4c-.467-.227-1.173-.627-2.2-1.24-.293-.173-.76-.413-1.027-.533-.28-.134-.506-.28-.506-.347 0-.053-.094-.107-.2-.107-.12 0-.24-.08-.28-.186a.207.207 0 0 0-.267-.12c-.107.04-.187 0-.187-.067 0-.08-.12-.187-.266-.227a1.19 1.19 0 0 1-.427-.24c-.093-.093-.44-.293-.773-.453-.334-.173-.84-.44-1.134-.613-.293-.16-1.16-.654-1.933-1.08-.773-.44-1.427-.827-1.467-.867-.04-.04-.546-.32-1.133-.613-.587-.294-1.133-.6-1.227-.667-.093-.08-.253-.213-.36-.307-.12-.093-.24-.16-.28-.16-.093.014-.92-.413-1-.52-.04-.04-.586-.346-1.226-.666-.64-.32-1.294-.707-1.44-.84-.147-.134-.267-.214-.267-.16 0 .04-.093.013-.2-.08-.107-.094-.2-.12-.2-.054 0 .067-.053.054-.107-.026-.053-.067-1.346-.84-2.893-1.72-1.533-.867-2.84-1.627-2.88-1.707a.227.227 0 0 0-.173-.107c-.094.027-.92-.386-1.014-.506-.066-.08-.68-.427-1.466-.827a3.69 3.69 0 0 1-.734-.48c-.146-.147-.333-.24-.426-.213-.08.026-.227-.027-.32-.12-.107-.107-.387-.267-.614-.36-.24-.094-.44-.227-.44-.294 0-.066-.04-.106-.093-.093-.067.027-.347-.107-.64-.28-.573-.347-.787-.467-2.4-1.333-.587-.32-1.093-.627-1.133-.667-.04-.053-.267-.173-.494-.267-.24-.106-.44-.24-.44-.306 0-.067-.053-.08-.133-.04-.067.04-.133.026-.133-.027 0-.067-.16-.187-.36-.28a8.107 8.107 0 0 1-.907-.493 13.92 13.92 0 0 0-1.067-.587c-.293-.133-.666-.373-.826-.533-.174-.16-.307-.254-.307-.2 0 .04-.093.013-.2-.08-.107-.094-.2-.12-.2-.08 0 .053-.093.013-.2-.08-.413-.374-.6-.52-.6-.454 0 .027-.32-.12-.693-.333-.387-.213-.92-.493-1.174-.6-.253-.12-.493-.253-.533-.307-.04-.053-.267-.173-.493-.266-.24-.107-.44-.227-.44-.28 0-.054-.24-.174-.534-.267-.293-.093-.533-.227-.533-.293 0-.067-.053-.08-.133-.04-.067.04-.134.2-.134.346 0 .134-.053.254-.12.254-.146 0-.08 1.04.107 1.506.08.2.187.52.227.694.04.186.12.333.186.333.054 0 .2.36.334.8.133.44.293.8.36.8.053 0 .106.067.106.133 0 .08.094.36.227.64.12.267.2.534.2.587-.013.067.04.107.107.107.08 0 .133.066.133.133 0 .12.96 1.853 1.507 2.733.333.534 1.026 1.6 1.133 1.734.28.373.6.933.547.96-.027.026.08.12.24.24.146.106.613.626 1.013 1.16.693.92 3.64 3.88 4.64 4.666.253.2.84.667 1.307 1.027.466.373 1.04.8 1.293.96.253.147.453.32.453.36 0 .053.24.213.534.347.293.146.533.32.533.386 0 .08.04.107.08.054.053-.04.16-.014.267.08.386.346.533.44.96.613.226.093.426.24.426.307 0 .066.067.08.134.04.08-.04.133-.027.133.04 0 .093.853.586 1.067.613.04.013.306.16.6.347.293.173.68.386.866.48.187.08.454.266.6.413.147.147.334.24.427.213.08-.026.227.027.32.12.107.094.44.294.76.427.307.147.56.293.56.333 0 .054.16.16.373.254.2.093.6.306.894.48 1.173.693 1.76 1.013 2.24 1.226.266.12.493.267.493.334 0 .066.08.12.187.12.093 0 .333.12.533.28.187.146.347.226.347.16 0-.054.053-.04.106.026.054.08.24.214.427.307s.64.347 1 .573c.373.214.827.467 1.04.56.2.08.36.187.36.24 0 .04.253.187.573.334.307.133.587.28.627.32.08.08.707.44 1.4.8.293.16.76.413 1.027.573.266.16 1.106.64 1.866 1.08.76.427 1.414.84 1.454.907.04.066.12.12.173.12.133-.027.933.413 1.027.546.04.067.12.12.173.12.16-.013 1.013.44 1.013.547 0 .053.067.107.147.107.147 0 2.8 1.453 2.92 1.6.04.04.267.16.507.253.226.107.426.227.426.293 0 .067.04.107.107.094.053-.027.333.106.627.293.293.173.68.387.866.48.187.08.454.267.6.413.147.147.334.24.414.214.08-.027.28.08.453.226.173.147.387.267.467.267.093 0 .24.093.333.2.093.107.213.16.28.12.067-.04.12-.013.12.04 0 .067.16.187.373.28.2.093.627.32.96.507.334.2.84.493 1.134.666.293.174.746.414 1 .547.253.133.493.28.506.333.027.067.12.107.214.107.106 0 .333.12.533.28.187.147.347.227.347.16 0-.053.053-.04.106.027.054.08.24.213.427.306.187.094.573.32.867.494.293.186.746.44 1 .573.253.12.8.44 1.2.707.4.253.84.506.973.56.12.04.227.146.227.226 0 .067.08.134.186.134.24 0 2.214 2.08 2.214 2.333 0 .107.066.2.16.2.08 0 .106.04.066.093-.053.04-.026.16.04.24.147.187.44 1.467.427 1.867-.027.6-.2 1.267-.32 1.267-.067 0-.08.053-.04.133.187.293-1.093 2.16-1.893 2.76-.28.2-.534.4-.574.44-.04.04-.386.28-.76.533-.906.6-1.093 1.12-.56 1.56.24.214.534.307.907.307.307 0 .547.053.547.133 0 .08.4.134.933.134.52 0 .933-.054.933-.12 0-.107.88-.24 1.84-.294.16-.013.294-.08.294-.146 0-.08.146-.107.333-.08.187.04.333.013.333-.067 0-.067.12-.093.267-.053.147.04.24.013.187-.054-.04-.066.013-.12.12-.12.093 0 .52-.173.933-.386.413-.214.787-.347.827-.307.04.04.066.013.066-.067 0-.066.147-.2.334-.28.186-.093.413-.213.506-.293.094-.067.427-.347.76-.6 1.414-1.107 2.734-2.747 3.454-4.267.226-.52.48-1.026.546-1.146.067-.12.16-.44.2-.707.054-.267.147-.48.2-.48.054 0 .067-.147.027-.333-.027-.187 0-.334.08-.334.067 0 .133-.226.133-.493 0-.28.054-.52.12-.533.054-.027.094-1.12.067-2.44-.013-1.56.013-2.4.107-2.4.093 0 .133-3.427.133-10.267 0-6.933-.04-10.267-.133-10.267-.094 0-.134-1.453-.107-4.4.027-2.426-.013-4.413-.067-4.44-.053-.013-.106-.293-.12-.626-.013-.334-.08-.68-.146-.774-.067-.08-.094-.346-.04-.56.04-.253.013-.4-.067-.4-.093 0-.12-.16-.093-.4.04-.226.013-.44-.054-.48-.053-.04-.106-.213-.106-.386 0-.174-.067-.36-.134-.4-.08-.054-.106-.2-.066-.347.053-.133.026-.253-.04-.253-.067 0-.174-.227-.227-.507-.053-.267-.147-.56-.213-.64-.067-.093-.12-.213-.107-.267.013-.066-.04-.293-.12-.493-.093-.213-.133-.44-.08-.507.04-.066.027-.12-.04-.12-.12 0-.707-1.213-.707-1.453a.148.148 0 0 0-.146-.147c-.067 0-.094-.066-.054-.133.04-.08.014-.133-.053-.133a.149.149 0 0 1-.147-.147c0-.2-1.333-2.44-1.493-2.493a.227.227 0 0 1-.107-.187c0-.187-1.666-2.133-2.626-3.053-1.147-1.107-2.48-2.187-3.574-2.88-.36-.24-.733-.494-.813-.56-.093-.067-.2-.094-.24-.054-.04.054-.08.014-.08-.066 0-.094-.093-.16-.2-.16a.321.321 0 0 1-.28-.2c-.053-.107-.147-.16-.213-.12-.08.053-.174.04-.227-.027-.04-.067-.227-.2-.413-.293a17.304 17.304 0 0 1-.867-.48c-1.173-.694-1.76-1.027-2.2-1.24-.253-.134-.547-.307-.64-.4-.08-.08-.28-.2-.427-.24-.146-.04-.266-.147-.266-.214 0-.066-.04-.106-.094-.093-.16.04-1.106-.467-1.106-.587 0-.053-.067-.106-.16-.106-.187 0-3.734-2-3.854-2.174a.227.227 0 0 0-.173-.106c-.16.013-1.013-.44-1.013-.547 0-.053-.067-.107-.147-.107-.187 0-2.56-1.333-2.667-1.506a.227.227 0 0 0-.173-.107c-.107.027-.92-.4-1.013-.507-.04-.053-.267-.173-.494-.266-.24-.107-.44-.24-.44-.307s-.053-.08-.133-.04c-.08.04-.133.027-.133-.027 0-.066-.214-.2-.467-.293-.253-.093-.467-.213-.467-.28 0-.067-.133-.16-.293-.213-.267-.08-.787-.36-2.373-1.267a3.138 3.138 0 0 1-.4-.253c-.08-.08-.72-.454-1.4-.8a76.11 76.11 0 0 1-1.2-.667 21.73 21.73 0 0 0-1-.56c-.187-.093-.36-.2-.4-.253-.04-.04-.307-.187-.6-.334-.294-.133-.56-.28-.6-.32-.067-.093-.4-.28-1.267-.733-.213-.107-.693-.387-1.067-.6-.36-.227-.88-.507-1.133-.627-.253-.133-.493-.266-.533-.306-.04-.04-1.387-.814-3-1.72-1.614-.92-2.974-1.707-3.014-1.774a.213.213 0 0 0-.173-.12c-.16.014-1.013-.44-1.013-.546 0-.054-.067-.107-.147-.107-.187 0-2.56-1.333-2.667-1.493-.04-.067-.12-.12-.173-.12-.107.026-.92-.4-1.013-.507-.04-.053-.267-.173-.494-.267-.24-.106-.44-.24-.44-.306 0-.067-.053-.08-.133-.04-.08.04-.133.026-.133-.04 0-.08-.147-.174-.32-.214a1.202 1.202 0 0 1-.52-.266 2.424 2.424 0 0 0-.64-.4c-.254-.12-.814-.427-1.254-.68-.44-.254-.906-.507-1.026-.547-.134-.053-.24-.133-.24-.2s-.08-.12-.187-.12c-.093 0-.333-.12-.533-.28-.187-.147-.347-.227-.347-.16 0 .053-.053.04-.107-.027-.053-.08-.24-.213-.426-.306-1.107-.574-1.667-.92-1.64-1.027.013-.08-.134-.147-.32-.16-.187 0-.374-.067-.427-.147-.04-.066-.32-.226-.613-.373-.294-.133-.56-.28-.6-.32-.067-.093-.4-.28-1.267-.733-.213-.107-.693-.387-1.067-.6a13.33 13.33 0 0 0-1.133-.627c-.253-.133-.493-.267-.533-.307-.04-.04-1.28-.76-2.76-1.6-1.48-.826-2.667-1.56-2.627-1.613.04-.067-.013-.08-.12-.04s-.28-.013-.373-.107c-.107-.093-.44-.293-.747-.426-.32-.147-.573-.307-.573-.374 0-.053-.067-.106-.147-.106-.187 0-2.56-1.334-2.667-1.494-.04-.066-.12-.12-.173-.12-.107.027-.92-.4-1.013-.506-.04-.054-.267-.174-.494-.267-.24-.107-.44-.24-.44-.307 0-.066-.053-.08-.133-.04-.067.04-.133.027-.133-.04 0-.08-.147-.173-.32-.213a1.204 1.204 0 0 1-.507-.253c-.107-.08-.587-.374-1.08-.627-.493-.253-.893-.52-.893-.587 0-.066-.04-.08-.08-.04-.054.054-.254-.026-.454-.173-.213-.147-.44-.267-.52-.267-.08 0-.146-.053-.146-.106 0-.054-.16-.174-.36-.267-.214-.093-.667-.347-1.04-.56a23.27 23.27 0 0 0-1.2-.653 21.333 21.333 0 0 1-1.067-.6 16.79 16.79 0 0 0-1-.574c-.253-.12-.493-.266-.533-.32-.04-.053-.227-.173-.4-.253a14.01 14.01 0 0 1-1-.533 9.932 9.932 0 0 0-1-.56 4.762 4.762 0 0 1-.654-.4c-.173-.134-.52-.24-.773-.24-.36 0-.467.066-.573.346Z" fill="#fff"></path></svg>